M48
; DRILL file {KiCad 9.0.2} date 2025-07-11T17:48:52+0900
; FORMAT={-:-/ absolute / metric / decimal}
; #@! TF.CreationDate,2025-07-11T17:48:52+09:00
; #@! TF.GenerationSoftware,Kicad,Pcbnew,9.0.2
; #@! TF.FileFunction,Plated,1,2,PTH
FMAT,2
METRIC
; #@! TA.AperFunction,Plated,PTH,ViaDrill
T1C0.300
; #@! TA.AperFunction,Plated,PTH,ComponentDrill
T2C0.500
; #@! TA.AperFunction,Plated,PTH,ComponentDrill
T3C0.800
; #@! TA.AperFunction,Plated,PTH,ComponentDrill
T4C1.000
; #@! TA.AperFunction,Plated,PTH,ComponentDrill
T5C3.200
%
G90
G05
T1
X81.8Y-79.92
X81.8Y-96.42
X82.58Y-81.9
X82.76Y-121.94
X88.19Y-92.81
X89.26Y-102.5
X91.0Y-103.94
X91.0Y-106.0
X91.477Y-84.552
X91.48Y-75.925
X93.93Y-109.627
X94.0Y-103.94
X94.0Y-106.0
X97.0Y-103.94
X97.0Y-106.0
X97.5Y-92.77
X99.84Y-58.23
X100.0Y-103.94
X100.0Y-106.0
X103.0Y-103.94
X103.0Y-106.0
X103.2Y-70.83
X103.2Y-79.92
X104.58Y-83.99
X104.59Y-69.03
X106.46Y-134.57
X107.0Y-55.0
X107.0Y-58.0
X107.0Y-61.0
X107.0Y-64.0
X107.55Y-98.0
X107.6Y-88.36
X107.6Y-94.78
X110.29Y-106.36
X110.61Y-51.69
X110.61Y-55.0
X110.61Y-58.0
X110.61Y-61.0
X110.61Y-64.0
X111.78Y-88.36
X113.0Y-50.0
X113.56Y-52.77
X113.56Y-67.09
X115.55Y-68.62
X115.7Y-135.51
X115.742Y-116.957
X115.75Y-106.373
X116.0Y-49.99
X116.284Y-71.43
X117.08Y-70.83
X117.1Y-75.26
X118.125Y-83.255
X119.0Y-49.99
X120.79Y-99.33
X120.79Y-106.37
X120.8Y-107.578
X121.04Y-78.75
X121.04Y-90.0
X121.149Y-69.03
X121.15Y-70.83
X121.43Y-50.0
X121.71Y-130.07
X121.72Y-95.7
X121.72Y-105.27
X121.78Y-69.79
X121.8Y-83.26
X121.8Y-91.52
X122.12Y-57.08
X122.44Y-93.62
X122.45Y-80.34
X122.5Y-60.5
X122.5Y-65.0
X122.5Y-107.07
X122.63Y-115.94
X124.07Y-47.32
X124.07Y-49.96
X127.42Y-132.27
X127.42Y-137.5
X127.93Y-47.03
X127.93Y-50.03
X127.95Y-59.07
X129.63Y-59.63
X129.64Y-67.0
X130.36Y-47.04
X130.36Y-50.04
X130.37Y-68.09
X130.37Y-113.34
X130.49Y-58.32
X130.91Y-68.68
X130.91Y-114.59
X131.57Y-103.27
X131.58Y-71.08
X131.66Y-110.81
X131.84Y-132.27
X132.18Y-104.06
X132.2Y-69.74
X132.8Y-92.35
X132.8Y-106.99
X132.81Y-76.43
X132.81Y-77.57
X132.81Y-79.189
X132.81Y-85.42
X132.81Y-87.57
X132.81Y-90.41
X132.83Y-72.71
X132.85Y-109.55
X132.85Y-130.08
X133.0Y-47.0
X133.0Y-50.0
X133.66Y-58.32
X133.66Y-71.087
X134.09Y-135.51
X134.57Y-65.938
X134.57Y-75.79
X135.18Y-125.55
X135.22Y-117.88
X135.53Y-65.188
X135.53Y-81.94
X135.53Y-91.65
X136.7Y-64.115
X136.7Y-72.9
X136.75Y-137.37
X136.75Y-143.5
X137.16Y-146.29
X138.41Y-80.35
X138.49Y-112.63
X138.5Y-115.9
X138.53Y-146.231
X139.0Y-122.0
X139.05Y-75.87
X139.17Y-84.73
X140.44Y-79.0
X140.73Y-45.24
X140.83Y-137.37
X141.17Y-87.61
X141.63Y-67.01
X141.63Y-68.04
X141.68Y-93.07
X141.71Y-46.93
X142.74Y-90.83
X142.75Y-43.66
X143.0Y-96.0
X143.0Y-100.0
X143.0Y-105.0
X143.0Y-108.0
X143.91Y-49.47
X144.0Y-77.0
X144.18Y-67.0
X144.18Y-68.4
X145.0Y-82.0
X145.45Y-112.28
X145.45Y-117.87
X146.0Y-96.0
X146.0Y-100.0
X146.0Y-105.0
X146.0Y-108.0
X147.0Y-77.0
X147.63Y-63.88
X147.63Y-71.2
X147.64Y-75.91
X148.0Y-82.0
X148.59Y-118.666
X149.0Y-42.0
X149.0Y-45.0
X149.0Y-48.0
X149.0Y-51.0
X149.0Y-54.0
X149.0Y-57.0
X149.0Y-96.0
X149.0Y-100.0
X149.0Y-105.0
X149.94Y-93.64
X150.0Y-68.0
X150.0Y-71.0
X150.0Y-74.0
X150.0Y-77.0
X150.57Y-114.42
X150.57Y-120.28
X150.65Y-91.07
X150.65Y-108.36
X151.0Y-62.0
X151.0Y-65.0
X151.0Y-82.0
X151.21Y-117.87
X151.37Y-115.33
X151.38Y-88.98
X151.38Y-92.35
X152.0Y-42.0
X152.0Y-45.0
X152.0Y-48.0
X152.0Y-51.0
X152.0Y-54.0
X152.41Y-129.64
X153.0Y-68.0
X153.0Y-71.0
X153.0Y-74.0
X153.0Y-77.0
X154.0Y-62.0
X154.0Y-65.0
X154.0Y-82.0
X154.0Y-85.0
X154.0Y-88.0
X154.0Y-91.0
X154.0Y-94.0
X154.0Y-97.0
X154.74Y-98.12
X155.0Y-48.0
X155.0Y-51.0
X155.0Y-54.0
X156.0Y-68.0
X156.0Y-71.0
X156.0Y-74.0
X156.0Y-77.0
X156.09Y-114.52
X156.09Y-122.3
X157.0Y-62.0
X157.0Y-65.0
X157.0Y-82.0
X157.0Y-85.0
X157.0Y-88.0
X157.0Y-91.0
X157.0Y-94.0
X157.0Y-97.0
X157.0Y-100.0
X157.0Y-106.0
X157.0Y-110.0
X158.0Y-48.0
X158.0Y-51.0
X158.0Y-54.0
X159.0Y-68.0
X159.0Y-71.0
X159.0Y-74.0
X159.0Y-77.0
X160.0Y-62.0
X160.0Y-65.0
X160.0Y-82.0
X160.0Y-85.0
X160.0Y-88.0
X160.0Y-91.0
X160.0Y-94.0
X160.0Y-97.0
X160.0Y-100.0
X160.0Y-106.0
X160.0Y-110.0
X160.49Y-113.32
X161.0Y-42.0
X161.0Y-45.0
X161.0Y-48.0
X161.0Y-51.0
X161.0Y-54.0
X161.0Y-57.0
X161.0Y-59.0
X161.1Y-114.52
X161.11Y-117.19
X161.72Y-107.59
X162.0Y-68.0
X162.0Y-71.0
X162.0Y-74.0
X162.0Y-77.0
X162.94Y-102.0
X163.0Y-62.0
X163.0Y-65.0
X163.0Y-91.0
X163.0Y-94.0
X163.0Y-97.0
X163.0Y-100.0
X163.23Y-89.16
X163.24Y-75.91
X164.0Y-48.0
X164.0Y-57.0
X164.0Y-59.0
X164.27Y-122.3
X164.45Y-66.54
X164.45Y-68.96
X164.45Y-71.36
X164.47Y-85.84
X164.48Y-77.6
X164.64Y-143.2
X166.0Y-97.0
X166.0Y-100.0
X166.0Y-106.0
X166.0Y-109.0
X166.0Y-112.0
X166.0Y-115.0
X167.0Y-48.0
X167.0Y-57.0
X167.0Y-59.0
X167.06Y-119.267
X168.92Y-77.8
X169.42Y-85.84
X169.42Y-89.2
X169.42Y-92.56
X170.0Y-127.0
X170.0Y-130.0
X170.0Y-133.0
X170.0Y-139.0
X170.0Y-142.0
X170.09Y-58.6
X170.41Y-104.06
X170.41Y-109.54
X170.49Y-118.44
X170.71Y-145.99
X171.05Y-103.33
X171.05Y-110.82
X172.81Y-124.34
X173.0Y-127.0
X173.0Y-130.0
X173.0Y-133.0
X173.0Y-139.0
X173.0Y-142.0
X176.0Y-127.0
X176.0Y-130.0
X176.0Y-133.0
X176.0Y-139.0
X176.0Y-142.0
X178.08Y-46.92
X178.67Y-77.8
X178.67Y-145.076
X178.7Y-49.46
X179.36Y-56.5
X179.36Y-120.98
X179.96Y-93.66
X180.15Y-122.02
X180.15Y-126.5
X180.15Y-131.0
X180.15Y-137.46
X180.58Y-110.545
X180.6Y-91.179
X181.0Y-68.0
X181.0Y-62.0
X181.0Y-65.0
X182.17Y-115.147
X183.79Y-58.52
X184.0Y-68.0
X184.0Y-62.0
X184.0Y-65.0
X185.0Y-77.0
X185.0Y-71.0
X185.0Y-74.0
X185.01Y-124.31
X190.22Y-86.75
X190.22Y-131.01
X190.86Y-85.15
X190.86Y-126.51
X191.49Y-122.02
X191.52Y-83.72
X192.89Y-134.56
X194.39Y-89.95
X195.0Y-66.0
X195.0Y-69.0
X195.42Y-99.27
X196.96Y-92.35
X197.95Y-98.12
X198.0Y-66.0
X198.0Y-69.0
X200.024Y-57.71
X202.0Y-107.0
X202.0Y-110.0
X203.0Y-63.0
X203.0Y-66.0
X203.0Y-69.0
X203.0Y-72.0
X203.0Y-78.0
X203.0Y-75.0
X203.6Y-112.5
X203.6Y-118.5
X205.0Y-107.0
X205.0Y-110.0
X206.0Y-63.0
X206.0Y-66.0
X206.0Y-69.0
X206.0Y-72.0
X206.0Y-78.0
X206.0Y-75.0
X207.0Y-112.0
X207.0Y-115.0
X208.0Y-107.0
X208.0Y-110.0
X209.0Y-78.0
X209.0Y-63.0
X209.0Y-75.0
X211.0Y-107.0
X211.0Y-110.0
X212.0Y-78.0
X212.0Y-75.0
X214.0Y-107.0
X214.0Y-110.0
X215.0Y-78.0
X215.0Y-75.0
X216.0Y-112.0
X216.0Y-115.0
X217.0Y-107.0
X217.0Y-110.0
T2
X92.5Y-101.0
X97.5Y-101.0
T3
X95.12Y-64.55
X95.12Y-67.09
X95.12Y-69.63
T4
X97.0Y-114.42
X97.0Y-116.96
X97.0Y-119.5
X106.46Y-73.5
X109.0Y-73.5
X125.125Y-65.1
X125.125Y-67.64
X125.125Y-70.18
X125.125Y-72.72
X125.125Y-75.26
X125.125Y-77.8
X125.125Y-80.34
X125.125Y-82.88
X125.125Y-85.42
X125.125Y-87.96
X125.125Y-90.5
X125.125Y-93.04
X125.125Y-95.58
X125.125Y-98.12
X125.125Y-100.66
X125.125Y-103.2
X125.125Y-105.74
X125.125Y-108.28
X125.125Y-110.82
X125.125Y-113.36
X125.125Y-115.9
X125.125Y-118.44
X125.125Y-120.98
X126.96Y-143.5
X127.665Y-65.1
X127.665Y-67.64
X127.665Y-70.18
X127.665Y-72.72
X127.665Y-75.26
X127.665Y-77.8
X127.665Y-80.34
X127.665Y-82.88
X127.665Y-85.42
X127.665Y-87.96
X127.665Y-90.5
X127.665Y-93.04
X127.665Y-95.58
X127.665Y-98.12
X127.665Y-100.66
X127.665Y-103.2
X127.665Y-105.74
X127.665Y-108.28
X127.665Y-110.82
X127.665Y-113.36
X127.665Y-115.9
X127.665Y-118.44
X127.665Y-120.98
X127.947Y-55.755
X129.5Y-143.5
X130.487Y-55.755
X133.027Y-55.755
X135.567Y-55.755
X138.107Y-55.755
X141.5Y-139.92
X141.5Y-142.46
X141.5Y-145.0
X145.89Y-41.86
X145.89Y-44.4
X145.89Y-46.94
X145.89Y-49.48
X145.89Y-52.02
X145.89Y-54.56
X145.89Y-57.1
X145.89Y-59.64
X148.5Y-139.92
X148.5Y-142.46
X148.5Y-145.0
X148.58Y-129.64
X155.5Y-139.96
X155.5Y-142.5
X155.5Y-145.04
X156.18Y-129.64
X161.73Y-127.65
X161.73Y-130.19
X162.539Y-139.882
X162.539Y-142.422
X162.539Y-144.962
X164.27Y-127.65
X164.27Y-130.19
X173.385Y-65.1
X173.385Y-67.64
X173.385Y-70.18
X173.385Y-72.72
X173.385Y-75.26
X173.385Y-77.8
X173.385Y-80.34
X173.385Y-82.88
X173.385Y-85.42
X173.385Y-87.96
X173.385Y-90.5
X173.385Y-93.04
X173.385Y-95.58
X173.385Y-98.12
X173.385Y-100.66
X173.385Y-103.2
X173.385Y-105.74
X173.385Y-108.28
X173.385Y-110.82
X173.385Y-113.36
X173.385Y-115.9
X173.385Y-118.44
X173.385Y-120.98
X173.52Y-41.85
X173.52Y-44.39
X173.52Y-46.93
X173.52Y-49.47
X173.52Y-52.01
X173.52Y-54.55
X175.925Y-65.1
X175.925Y-67.64
X175.925Y-70.18
X175.925Y-72.72
X175.925Y-75.26
X175.925Y-77.8
X175.925Y-80.34
X175.925Y-82.88
X175.925Y-85.42
X175.925Y-87.96
X175.925Y-90.5
X175.925Y-93.04
X175.925Y-95.58
X175.925Y-98.12
X175.925Y-100.66
X175.925Y-103.2
X175.925Y-105.74
X175.925Y-108.28
X175.925Y-110.82
X175.925Y-113.36
X175.925Y-115.9
X175.925Y-118.44
X175.925Y-120.98
X183.45Y-88.64
X183.45Y-91.18
X183.45Y-93.72
X183.45Y-96.26
X191.88Y-76.0
X192.88Y-112.5
X194.42Y-76.0
X195.42Y-112.5
X196.96Y-76.0
X197.96Y-112.5
X199.5Y-76.0
X200.5Y-112.5
T5
X89.0Y-68.5
X89.0Y-117.554
X211.894Y-68.5
X211.894Y-117.554
M30
