%TF.GenerationSoftware,KiCad,Pcbnew,9.0.2*%
%TF.CreationDate,2025-07-11T17:47:35+09:00*%
%TF.ProjectId,Drone_FC_V1.0,44726f6e-655f-4464-935f-56312e302e6b,rev?*%
%TF.SameCoordinates,Original*%
%TF.FileFunction,Soldermask,Top*%
%TF.FilePolarity,Negative*%
%FSLAX46Y46*%
G04 Gerber Fmt 4.6, Leading zero omitted, Abs format (unit mm)*
G04 Created by KiCad (PCBNEW 9.0.2) date 2025-07-11 17:47:35*
%MOMM*%
%LPD*%
G01*
G04 APERTURE LIST*
G04 Aperture macros list*
%AMRoundRect*
0 Rectangle with rounded corners*
0 $1 Rounding radius*
0 $2 $3 $4 $5 $6 $7 $8 $9 X,Y pos of 4 corners*
0 Add a 4 corners polygon primitive as box body*
4,1,4,$2,$3,$4,$5,$6,$7,$8,$9,$2,$3,0*
0 Add four circle primitives for the rounded corners*
1,1,$1+$1,$2,$3*
1,1,$1+$1,$4,$5*
1,1,$1+$1,$6,$7*
1,1,$1+$1,$8,$9*
0 Add four rect primitives between the rounded corners*
20,1,$1+$1,$2,$3,$4,$5,0*
20,1,$1+$1,$4,$5,$6,$7,0*
20,1,$1+$1,$6,$7,$8,$9,0*
20,1,$1+$1,$8,$9,$2,$3,0*%
G04 Aperture macros list end*
%ADD10C,0.120000*%
%ADD11RoundRect,0.237500X0.237500X-0.250000X0.237500X0.250000X-0.237500X0.250000X-0.237500X-0.250000X0*%
%ADD12RoundRect,0.250001X-0.944999X0.507499X-0.944999X-0.507499X0.944999X-0.507499X0.944999X0.507499X0*%
%ADD13RoundRect,0.237500X-0.250000X-0.237500X0.250000X-0.237500X0.250000X0.237500X-0.250000X0.237500X0*%
%ADD14O,4.000000X3.400000*%
%ADD15R,1.700000X1.700000*%
%ADD16C,1.700000*%
%ADD17RoundRect,0.237500X0.237500X-0.300000X0.237500X0.300000X-0.237500X0.300000X-0.237500X-0.300000X0*%
%ADD18C,3.600000*%
%ADD19C,6.400000*%
%ADD20RoundRect,0.250001X-0.872499X-1.044999X0.872499X-1.044999X0.872499X1.044999X-0.872499X1.044999X0*%
%ADD21R,1.500000X1.500000*%
%ADD22C,1.600000*%
%ADD23C,1.000000*%
%ADD24R,2.000000X1.350000*%
%ADD25RoundRect,0.237500X-0.300000X-0.237500X0.300000X-0.237500X0.300000X0.237500X-0.300000X0.237500X0*%
%ADD26RoundRect,0.237500X0.300000X0.237500X-0.300000X0.237500X-0.300000X-0.237500X0.300000X-0.237500X0*%
%ADD27RoundRect,0.237500X-0.237500X0.300000X-0.237500X-0.300000X0.237500X-0.300000X0.237500X0.300000X0*%
%ADD28RoundRect,0.282500X0.537500X-0.282500X0.537500X0.282500X-0.537500X0.282500X-0.537500X-0.282500X0*%
%ADD29RoundRect,0.287500X0.532500X-0.287500X0.532500X0.287500X-0.532500X0.287500X-0.532500X-0.287500X0*%
%ADD30RoundRect,0.237500X0.237500X-0.287500X0.237500X0.287500X-0.237500X0.287500X-0.237500X-0.287500X0*%
%ADD31RoundRect,0.237500X-0.237500X0.250000X-0.237500X-0.250000X0.237500X-0.250000X0.237500X0.250000X0*%
%ADD32RoundRect,0.237500X0.287500X0.237500X-0.287500X0.237500X-0.287500X-0.237500X0.287500X-0.237500X0*%
%ADD33RoundRect,0.150000X0.150000X-0.587500X0.150000X0.587500X-0.150000X0.587500X-0.150000X-0.587500X0*%
%ADD34RoundRect,0.250000X0.275000X0.350000X-0.275000X0.350000X-0.275000X-0.350000X0.275000X-0.350000X0*%
%ADD35RoundRect,0.375000X0.625000X0.375000X-0.625000X0.375000X-0.625000X-0.375000X0.625000X-0.375000X0*%
%ADD36RoundRect,0.500000X0.500000X1.400000X-0.500000X1.400000X-0.500000X-1.400000X0.500000X-1.400000X0*%
%ADD37RoundRect,0.250000X0.850000X0.350000X-0.850000X0.350000X-0.850000X-0.350000X0.850000X-0.350000X0*%
%ADD38RoundRect,0.249997X2.950003X2.650003X-2.950003X2.650003X-2.950003X-2.650003X2.950003X-2.650003X0*%
%ADD39RoundRect,0.237500X0.250000X0.237500X-0.250000X0.237500X-0.250000X-0.237500X0.250000X-0.237500X0*%
%ADD40O,3.400000X4.000000*%
%ADD41RoundRect,0.250000X-0.275000X-0.350000X0.275000X-0.350000X0.275000X0.350000X-0.275000X0.350000X0*%
%ADD42O,1.700000X1.700000*%
%ADD43RoundRect,0.250000X0.350000X-0.275000X0.350000X0.275000X-0.350000X0.275000X-0.350000X-0.275000X0*%
%ADD44RoundRect,0.250001X0.507499X0.944999X-0.507499X0.944999X-0.507499X-0.944999X0.507499X-0.944999X0*%
%ADD45R,2.000000X2.000000*%
%ADD46C,2.000000*%
G04 APERTURE END LIST*
%TO.C,SW1*%
D10*
X83460000Y-95904000D02*
X84984000Y-95904000D01*
X84984000Y-94888000D01*
X83460000Y-94888000D01*
X83460000Y-95904000D01*
X83460000Y-103016000D02*
X84984000Y-103016000D01*
X84984000Y-102000000D01*
X83460000Y-102000000D01*
X83460000Y-103016000D01*
%TD*%
D11*
%TO.C,R22*%
X142110000Y-72892500D03*
X142110000Y-71067500D03*
%TD*%
%TO.C,R1*%
X136830000Y-81940000D03*
X136830000Y-80115000D03*
%TD*%
D12*
%TO.C,C3*%
X107000000Y-106372500D03*
X107000000Y-109627500D03*
%TD*%
D13*
%TO.C,R15*%
X157410000Y-114522500D03*
X159235000Y-114522500D03*
%TD*%
D14*
%TO.C,U8*%
X166445000Y-43100000D03*
X166470000Y-53275000D03*
D15*
X173520000Y-41850000D03*
D16*
X173520000Y-44390000D03*
X173520000Y-46930000D03*
X173520000Y-49470000D03*
X173520000Y-52010000D03*
X173520000Y-54550000D03*
%TD*%
D17*
%TO.C,C14*%
X145120000Y-72892500D03*
X145120000Y-71167500D03*
%TD*%
D18*
%TO.C,H2*%
X211894444Y-68499999D03*
D19*
X211894444Y-68499999D03*
%TD*%
D20*
%TO.C,C15*%
X137220000Y-125550000D03*
X143635000Y-125550000D03*
%TD*%
D15*
%TO.C,J11*%
X162539415Y-139881642D03*
D16*
X162539415Y-142421642D03*
X162539415Y-144961642D03*
%TD*%
D21*
%TO.C,SW2*%
X95120000Y-67090000D03*
D22*
X95120000Y-69630000D03*
X95120000Y-64550000D03*
%TD*%
D23*
%TO.C,TP2*%
X97500000Y-101000000D03*
%TD*%
D24*
%TO.C,U6*%
X84510000Y-75975000D03*
X84510000Y-77975000D03*
X84510000Y-79975000D03*
X84510000Y-81975000D03*
X84510000Y-83975000D03*
X84510000Y-85975000D03*
X84510000Y-87975000D03*
X84510000Y-89975000D03*
X100510000Y-90000000D03*
X100510000Y-88000000D03*
X100510000Y-86000000D03*
X100510000Y-84000000D03*
X100510000Y-82000000D03*
X100510000Y-80000000D03*
X100510000Y-78000000D03*
X100510000Y-76000000D03*
%TD*%
D13*
%TO.C,R16*%
X147530000Y-108362500D03*
X149355000Y-108362500D03*
%TD*%
%TO.C,R17*%
X147450000Y-114417500D03*
X149275000Y-114417500D03*
%TD*%
D11*
%TO.C,R2*%
X88246206Y-107578441D03*
X88246206Y-105753441D03*
%TD*%
D25*
%TO.C,C7*%
X165857500Y-77590000D03*
X167582500Y-77590000D03*
%TD*%
D26*
%TO.C,C10*%
X168050000Y-89200000D03*
X166325000Y-89200000D03*
%TD*%
D15*
%TO.C,J6*%
X164270000Y-127650000D03*
D16*
X164270000Y-130190000D03*
X161730000Y-127650000D03*
X161730000Y-130190000D03*
%TD*%
D15*
%TO.C,J8*%
X141500000Y-139920000D03*
D16*
X141500000Y-142460000D03*
X141500000Y-145000000D03*
%TD*%
D27*
%TO.C,C17*%
X101640000Y-116957500D03*
X101640000Y-118682500D03*
%TD*%
D12*
%TO.C,C5*%
X113500000Y-106372500D03*
X113500000Y-109627500D03*
%TD*%
D25*
%TO.C,C16*%
X165810000Y-71360000D03*
X167535000Y-71360000D03*
%TD*%
D28*
%TO.C,SW1*%
X84225000Y-102500000D03*
D29*
X84220000Y-95405000D03*
%TD*%
D13*
%TO.C,R4*%
X136647500Y-90410000D03*
X138472500Y-90410000D03*
%TD*%
D30*
%TO.C,D6*%
X145000000Y-146000000D03*
X145000000Y-144250000D03*
%TD*%
D25*
%TO.C,C12*%
X137057500Y-111147500D03*
X138782500Y-111147500D03*
%TD*%
D15*
%TO.C,J9*%
X148500000Y-139920000D03*
D16*
X148500000Y-142460000D03*
X148500000Y-145000000D03*
%TD*%
D31*
%TO.C,R9*%
X152020000Y-137557500D03*
X152020000Y-139382500D03*
%TD*%
D13*
%TO.C,R7*%
X181457500Y-122020000D03*
X183282500Y-122020000D03*
%TD*%
D30*
%TO.C,D7*%
X152000000Y-146000000D03*
X152000000Y-144250000D03*
%TD*%
%TO.C,D9*%
X166000000Y-146000000D03*
X166000000Y-144250000D03*
%TD*%
D11*
%TO.C,R12*%
X145560000Y-67002500D03*
X145560000Y-65177500D03*
%TD*%
D32*
%TO.C,D1*%
X130500000Y-137500000D03*
X128750000Y-137500000D03*
%TD*%
D13*
%TO.C,R5*%
X181457500Y-131000000D03*
X183282500Y-131000000D03*
%TD*%
D33*
%TO.C,Q3*%
X148180000Y-88987500D03*
X150080000Y-88987500D03*
X149130000Y-87112500D03*
%TD*%
D14*
%TO.C,U4*%
X156990000Y-42935000D03*
X156990000Y-58510000D03*
D15*
X145890000Y-41860000D03*
D16*
X145890000Y-44400000D03*
X145890000Y-46940000D03*
X145890000Y-49480000D03*
X145890000Y-52020000D03*
X145890000Y-54560000D03*
X145890000Y-57100000D03*
X145890000Y-59640000D03*
%TD*%
D31*
%TO.C,R28*%
X144920000Y-84680000D03*
X144920000Y-86505000D03*
%TD*%
D13*
%TO.C,R6*%
X181460000Y-126520000D03*
X183285000Y-126520000D03*
%TD*%
D34*
%TO.C,FB3*%
X168090000Y-92560000D03*
X165790000Y-92560000D03*
%TD*%
D35*
%TO.C,U1*%
X116650000Y-100300000D03*
X116650000Y-98000000D03*
D36*
X110350000Y-98000000D03*
D35*
X116650000Y-95700000D03*
%TD*%
D33*
%TO.C,Q2*%
X152480000Y-114230000D03*
X154380000Y-114230000D03*
X153430000Y-112355000D03*
%TD*%
D25*
%TO.C,C11*%
X138077500Y-63880000D03*
X139802500Y-63880000D03*
%TD*%
D13*
%TO.C,R27*%
X137035000Y-114387500D03*
X138860000Y-114387500D03*
%TD*%
%TO.C,R20*%
X142255000Y-117880000D03*
X144080000Y-117880000D03*
%TD*%
%TO.C,R19*%
X147505000Y-111312500D03*
X149330000Y-111312500D03*
%TD*%
D17*
%TO.C,C6*%
X118500000Y-90000000D03*
X118500000Y-88275000D03*
%TD*%
D15*
%TO.C,J4*%
X191880000Y-76000000D03*
D16*
X194420000Y-76000000D03*
X196960000Y-76000000D03*
X199500000Y-76000000D03*
%TD*%
D31*
%TO.C,R11*%
X165930000Y-137465000D03*
X165930000Y-139290000D03*
%TD*%
D15*
%TO.C,J7*%
X97000000Y-114420000D03*
D16*
X97000000Y-116960000D03*
X97000000Y-119500000D03*
%TD*%
D25*
%TO.C,C13*%
X99150000Y-96000000D03*
X100875000Y-96000000D03*
%TD*%
D37*
%TO.C,U2*%
X118125000Y-83255000D03*
D38*
X111825000Y-80975000D03*
D37*
X118125000Y-78695000D03*
%TD*%
D31*
%TO.C,R13*%
X142910000Y-65187500D03*
X142910000Y-67012500D03*
%TD*%
D15*
%TO.C,J1*%
X192880000Y-112500000D03*
D16*
X195420000Y-112500000D03*
X197960000Y-112500000D03*
X200500000Y-112500000D03*
%TD*%
D11*
%TO.C,R26*%
X144910000Y-90842500D03*
X144910000Y-89017500D03*
%TD*%
D32*
%TO.C,D3*%
X188850000Y-131010000D03*
X187100000Y-131010000D03*
%TD*%
D13*
%TO.C,R14*%
X138000000Y-67000000D03*
X139825000Y-67000000D03*
%TD*%
D18*
%TO.C,H3*%
X211894444Y-117553823D03*
D19*
X211894444Y-117553823D03*
%TD*%
D15*
%TO.C,J3*%
X109000000Y-73500000D03*
D16*
X106460000Y-73500000D03*
%TD*%
D39*
%TO.C,R23*%
X167575000Y-68960000D03*
X165750000Y-68960000D03*
%TD*%
%TO.C,R3*%
X138530000Y-87570000D03*
X136705000Y-87570000D03*
%TD*%
D18*
%TO.C,H1*%
X89000000Y-117553823D03*
D19*
X89000000Y-117553823D03*
%TD*%
D40*
%TO.C,U5*%
X137601890Y-41955378D03*
X128401890Y-41955378D03*
D15*
X138106890Y-55755378D03*
D16*
X135566890Y-55755378D03*
X133026890Y-55755378D03*
X130486890Y-55755378D03*
X127946890Y-55755378D03*
%TD*%
D13*
%TO.C,R18*%
X152487500Y-117890000D03*
X154312500Y-117890000D03*
%TD*%
D30*
%TO.C,D2*%
X84000000Y-107500000D03*
X84000000Y-105750000D03*
%TD*%
D17*
%TO.C,C4*%
X114000000Y-90000000D03*
X114000000Y-88275000D03*
%TD*%
D31*
%TO.C,R21*%
X139360000Y-71087500D03*
X139360000Y-72912500D03*
%TD*%
D26*
%TO.C,300R/1608*%
X130490269Y-132272078D03*
X128765269Y-132272078D03*
%TD*%
D30*
%TO.C,D8*%
X159000000Y-146000000D03*
X159000000Y-144250000D03*
%TD*%
D41*
%TO.C,FB2*%
X92350000Y-96000000D03*
X94650000Y-96000000D03*
%TD*%
D31*
%TO.C,R10*%
X158930000Y-137552500D03*
X158930000Y-139377500D03*
%TD*%
D15*
%TO.C,J2*%
X129500000Y-143500000D03*
D16*
X126960000Y-143500000D03*
%TD*%
D15*
%TO.C,J5*%
X125125000Y-65100000D03*
D42*
X127665000Y-65100000D03*
X125125000Y-67640000D03*
X127665000Y-67640000D03*
X125125000Y-70180000D03*
X127665000Y-70180000D03*
X125125000Y-72720000D03*
X127665000Y-72720000D03*
X125125000Y-75260000D03*
X127665000Y-75260000D03*
X125125000Y-77800000D03*
X127665000Y-77800000D03*
X125125000Y-80340000D03*
X127665000Y-80340000D03*
X125125000Y-82880000D03*
X127665000Y-82880000D03*
X125125000Y-85420000D03*
X127665000Y-85420000D03*
X125125000Y-87960000D03*
X127665000Y-87960000D03*
X125125000Y-90500000D03*
X127665000Y-90500000D03*
X125125000Y-93040000D03*
X127665000Y-93040000D03*
X125125000Y-95580000D03*
X127665000Y-95580000D03*
X125125000Y-98120000D03*
X127665000Y-98120000D03*
X125125000Y-100660000D03*
X127665000Y-100660000D03*
X125125000Y-103200000D03*
X127665000Y-103200000D03*
X125125000Y-105740000D03*
X127665000Y-105740000D03*
X125125000Y-108280000D03*
X127665000Y-108280000D03*
X125125000Y-110820000D03*
X127665000Y-110820000D03*
X125125000Y-113360000D03*
X127665000Y-113360000D03*
X125125000Y-115900000D03*
X127665000Y-115900000D03*
X125125000Y-118440000D03*
X127665000Y-118440000D03*
X125125000Y-120980000D03*
X127665000Y-120980000D03*
D15*
X173385000Y-65100000D03*
D42*
X175925000Y-65100000D03*
X173385000Y-67640000D03*
X175925000Y-67640000D03*
X173385000Y-70180000D03*
X175925000Y-70180000D03*
X173385000Y-72720000D03*
X175925000Y-72720000D03*
X173385000Y-75260000D03*
X175925000Y-75260000D03*
X173385000Y-77800000D03*
X175925000Y-77800000D03*
X173385000Y-80340000D03*
X175925000Y-80340000D03*
X173385000Y-82880000D03*
X175925000Y-82880000D03*
X173385000Y-85420000D03*
X175925000Y-85420000D03*
X173385000Y-87960000D03*
X175925000Y-87960000D03*
X173385000Y-90500000D03*
X175925000Y-90500000D03*
X173385000Y-93040000D03*
X175925000Y-93040000D03*
X173385000Y-95580000D03*
X175925000Y-95580000D03*
X173385000Y-98120000D03*
X175925000Y-98120000D03*
X173385000Y-100660000D03*
X175925000Y-100660000D03*
X173385000Y-103200000D03*
X175925000Y-103200000D03*
X173385000Y-105740000D03*
X175925000Y-105740000D03*
X173385000Y-108280000D03*
X175925000Y-108280000D03*
X173385000Y-110820000D03*
X175925000Y-110820000D03*
X173385000Y-113360000D03*
X175925000Y-113360000D03*
X173385000Y-115900000D03*
X175925000Y-115900000D03*
X173385000Y-118440000D03*
X175925000Y-118440000D03*
X173385000Y-120980000D03*
X175925000Y-120980000D03*
%TD*%
D14*
%TO.C,U3*%
X184100000Y-103250000D03*
X214800000Y-103250000D03*
X214800000Y-81950000D03*
X184050000Y-81900000D03*
D15*
X183450000Y-88640000D03*
D16*
X183450000Y-91180000D03*
X183450000Y-93720000D03*
X183450000Y-96260000D03*
%TD*%
D33*
%TO.C,Q1*%
X142260000Y-114157500D03*
X144160000Y-114157500D03*
X143210000Y-112282500D03*
%TD*%
D43*
%TO.C,FB4*%
X105700000Y-90660000D03*
X105700000Y-88360000D03*
%TD*%
D26*
%TO.C,C8*%
X120862500Y-65000000D03*
X119137500Y-65000000D03*
%TD*%
D17*
%TO.C,C1*%
X136830000Y-77575000D03*
X136830000Y-75850000D03*
%TD*%
D31*
%TO.C,R8*%
X144950000Y-137557500D03*
X144950000Y-139382500D03*
%TD*%
D39*
%TO.C,R25*%
X149950000Y-92350000D03*
X148125000Y-92350000D03*
%TD*%
D18*
%TO.C,H4*%
X89000000Y-68500000D03*
D19*
X89000000Y-68500000D03*
%TD*%
D13*
%TO.C,R24*%
X165757500Y-66540000D03*
X167582500Y-66540000D03*
%TD*%
D44*
%TO.C,C9*%
X120627500Y-60500000D03*
X117372500Y-60500000D03*
%TD*%
D34*
%TO.C,FB1*%
X168100000Y-85840000D03*
X165800000Y-85840000D03*
%TD*%
D45*
%TO.C,BZ1*%
X148580000Y-129640000D03*
D46*
X156180000Y-129640000D03*
%TD*%
D26*
%TO.C,C2*%
X201000000Y-118500000D03*
X199275000Y-118500000D03*
%TD*%
D23*
%TO.C,TP1*%
X92500000Y-101000000D03*
%TD*%
D15*
%TO.C,J10*%
X155500000Y-139960000D03*
D16*
X155500000Y-142500000D03*
X155500000Y-145040000D03*
%TD*%
D32*
%TO.C,D5*%
X188725000Y-122010000D03*
X186975000Y-122010000D03*
%TD*%
%TO.C,D4*%
X188850000Y-126510000D03*
X187100000Y-126510000D03*
%TD*%
M02*
