M48
; DRILL file {KiCad 9.0.2} date 2025-07-11T17:48:52+0900
; FORMAT={-:-/ absolute / metric / decimal}
; #@! TF.CreationDate,2025-07-11T17:48:52+09:00
; #@! TF.GenerationSoftware,Kicad,Pcbnew,9.0.2
; #@! TF.FileFunction,NonPlated,1,2,NPTH
FMAT,2
METRIC
; #@! TA.AperFunction,NonPlated,NPTH,ComponentDrill
T1C2.400
%
G90
G05
T1
G00X128.402Y-41.655
M15
G01X128.402Y-42.255
M16
G05
G00X137.602Y-41.655
M15
G01X137.602Y-42.255
M16
G05
G00X157.29Y-42.935
M15
G01X156.69Y-42.935
M16
G05
G00X156.69Y-58.51
M15
G01X157.29Y-58.51
M16
G05
G00X166.145Y-43.1
M15
G01X166.745Y-43.1
M16
G05
G00X166.77Y-53.275
M15
G01X166.17Y-53.275
M16
G05
G00X184.35Y-81.9
M15
G01X183.75Y-81.9
M16
G05
G00X183.8Y-103.25
M15
G01X184.4Y-103.25
M16
G05
G00X215.1Y-81.95
M15
G01X214.5Y-81.95
M16
G05
G00X214.5Y-103.25
M15
G01X215.1Y-103.25
M16
G05
M30
